# xmcd
#
# Track frame offsets:
#	150
#	15713
#	39937
#	53082
#	69843
#	94248
#	111233
#	134430
#	154425
#	184686
#	210859
#	230193
#	245272
#
# Disc length: 3559 seconds
#
# Revision: 2
# Processed by: cddbd v1.5.1PL0 Copyright (c) Steve Scherf et al.
# Submitted via: EasyCDDAExtractor 7.0.6.1
#
DISCID=ab0de50d
DTITLE=Ynka Nan - Sound Of The Mountains V
DYEAR=2003
DGENRE=Easy Listening
TTITLE0=Autumn Song
TTITLE1=Your Eyes
TTITLE2=One To Four
TTITLE3=Angel
TTITLE4=Chukiago Marka
TTITLE5=Elay Pue
TTITLE6=The Train
TTITLE7=Pituco
TTITLE8=Rain
TTITLE9=Far Away
TTITLE10=Pata Pollerita
TTITLE11=Let Us Dance
TTITLE12=Perfume
EXTD=
EXTT0=
EXTT1=
EXTT2=
EXTT3=
EXTT4=
EXTT5=
EXTT6=
EXTT7=
EXTT8=
EXTT9=
EXTT10=
EXTT11=
EXTT12=
PLAYORDER=
